<?xml version="1.0" ?><!DOCTYPE svg  PUBLIC '-//W3C//DTD SVG 1.1//EN'  'http://www.w3.org/Graphics/SVG/1.1/DTD/svg11.dtd'><svg enable-background="new 0 0 50 50" height="50px" id="Layer_1" version="1.1" viewBox="0 0 50 50" width="50px" xml:space="preserve" xmlns="http://www.w3.org/2000/svg" xmlns:xlink="http://www.w3.org/1999/xlink"><g><g><path d="M50,45.233C50,47.866,47.866,50,45.233,50H4.767C2.134,50,0,47.866,0,45.233V4.767     C0,2.134,2.134,0,4.767,0h40.466C47.866,0,50,2.134,50,4.767V45.233z" fill="#2899C0"/><path d="M50,45.233L49.991,32.29L32.924,15.221l-8.782,7.713l-7.066,11.844L32.29,49.991L45.233,50     C47.866,50,50,47.866,50,45.233z" opacity="0.2"/><g><path d="M15.221,18.964c-0.521-0.521-0.521-1.367,0-1.888l1.854-1.854c0.521-0.521,1.367-0.521,1.888,0      l15.814,15.814c0.521,0.521,0.521,1.367,0,1.888l-1.854,1.854c-0.521,0.521-1.367,0.521-1.888,0L15.221,18.964z" fill="#FFFFFF"/><path d="M31.036,15.221c0.521-0.521,1.367-0.521,1.888,0l1.854,1.854c0.521,0.521,0.521,1.367,0,1.888      L18.964,34.779c-0.521,0.521-1.367,0.521-1.888,0l-1.854-1.854c-0.521-0.521-0.521-1.367,0-1.888L31.036,15.221z" fill="#FFFFFF"/></g></g></g></svg>